<svg width="16" height="12" viewBox="0 0 16 12" fill="none" xmlns="http://www.w3.org/2000/svg">
<path d="M0.185181 1.49625C0.185181 1.08375 0.52381 0.75 0.940643 0.75H7.02231C7.22267 0.75 7.41483 0.828622 7.5565 0.968571C7.69818 1.10852 7.77777 1.29833 7.77777 1.49625C7.77777 1.69417 7.69818 1.88398 7.5565 2.02393C7.41483 2.16388 7.22267 2.2425 7.02231 2.2425H0.940643C0.740282 2.2425 0.548127 2.16388 0.406451 2.02393C0.264774 1.88398 0.185181 1.69417 0.185181 1.49625ZM0.185181 6C0.185181 5.5875 0.52381 5.25375 0.940643 5.25375H14.6149C14.8153 5.25375 15.0074 5.33237 15.1491 5.47232C15.2908 5.61227 15.3704 5.80208 15.3704 6C15.3704 6.19792 15.2908 6.38773 15.1491 6.52768C15.0074 6.66763 14.8153 6.74625 14.6149 6.74625H0.940643C0.740282 6.74625 0.548127 6.66763 0.406451 6.52768C0.264774 6.38773 0.185181 6.19792 0.185181 6ZM0.940643 9.7575C0.740282 9.7575 0.548127 9.83612 0.406451 9.97607C0.264774 10.116 0.185181 10.3058 0.185181 10.5037C0.185181 10.7017 0.264774 10.8915 0.406451 11.0314C0.548127 11.1714 0.740282 11.25 0.940643 11.25H10.0593C10.2597 11.25 10.4519 11.1714 10.5935 11.0314C10.7352 10.8915 10.8148 10.7017 10.8148 10.5037C10.8148 10.3058 10.7352 10.116 10.5935 9.97607C10.4519 9.83612 10.2597 9.7575 10.0593 9.7575H0.940643Z" fill="white"/>
</svg>
